<svg width="24" height="26" viewBox="0 0 24 26" fill="none" xmlns="http://www.w3.org/2000/svg">
<g clip-path="url(#clip0_21_490)">
<path d="M14.4056 12.9907L23.7304 2.88889C23.8157 2.79683 23.8834 2.68742 23.9295 2.56695C23.9757 2.44648 23.9995 2.31731 23.9995 2.18686C23.9995 2.05641 23.9757 1.92725 23.9295 1.80678C23.8834 1.6863 23.8157 1.5769 23.7304 1.48483L22.6207 0.282682C22.4462 0.101921 22.2141 0.00103781 21.9727 0.00103781C21.7312 0.00103781 21.4991 0.101921 21.3246 0.282682L11.9999 10.3845L2.67516 0.282682C2.50105 0.101502 2.26913 6.2325e-05 2.02771 -0.00051631C1.78628 -0.00109494 1.55396 0.0992324 1.3791 0.279575L0.266559 1.48173C0.0949629 1.66807 -0.00140381 1.92054 -0.00140381 2.18376C-0.00140381 2.44697 0.0949629 2.69944 0.266559 2.88579L9.59416 12.9907L0.269426 23.0925C0.184116 23.1845 0.116426 23.294 0.0702381 23.4144C0.0240503 23.5349 0.00027443 23.6641 0.00027443 23.7945C0.00027443 23.925 0.0240503 24.0541 0.0702381 24.1746C0.116426 24.2951 0.184116 24.4045 0.269426 24.4965L1.3791 25.6987C1.55359 25.8795 1.78571 25.9803 2.02713 25.9803C2.26856 25.9803 2.50068 25.8795 2.67516 25.6987L11.9999 15.5969L21.3246 25.6987C21.4991 25.8795 21.7312 25.9803 21.9727 25.9803C22.2141 25.9803 22.4462 25.8795 22.6207 25.6987L23.7304 24.4965C23.902 24.3102 23.9983 24.0577 23.9983 23.7945C23.9983 23.5313 23.902 23.2788 23.7304 23.0925L14.4056 12.9907Z" fill="#EC0000"/>
</g>
<defs>
<clipPath id="clip0_21_490">
<rect width="24" height="25.9783" fill="white"/>
</clipPath>
</defs>
</svg>
