<svg width="24" height="24" viewBox="0 0 24 24" fill="none" xmlns="http://www.w3.org/2000/svg">
<path d="M1.22847 9.48062L2.91302 9.19485C3.0885 8.62831 3.3141 8.08184 3.58985 7.56043L2.59717 6.17168C2.17603 5.58008 2.24121 4.7729 2.7576 4.26152L4.25164 2.76748C4.5324 2.48672 4.9034 2.3313 5.29947 2.3313C5.61031 2.3313 5.90611 2.42656 6.15679 2.60704L7.55055 3.59973C8.09201 3.31396 8.65855 3.07832 9.24513 2.90284L9.52589 1.23835C9.64621 0.521409 10.2629 0 10.9898 0H13.1005C13.8275 0 14.4442 0.521409 14.5645 1.23835L14.8553 2.94295C15.4168 3.11843 15.9633 3.34905 16.4847 3.62981L17.8634 2.63713C18.1141 2.45664 18.4149 2.36138 18.7257 2.36138C19.1218 2.36138 19.4978 2.5168 19.7736 2.79756L21.2726 4.2916C21.784 4.80298 21.8542 5.61016 21.4331 6.20176L20.4304 7.61056C20.7061 8.13699 20.9267 8.68346 21.0972 9.25L22.7617 9.53075C23.4786 9.65108 24 10.2677 24 10.9947V13.1054C24 13.8324 23.4786 14.449 22.7617 14.5694L21.057 14.8602C20.8816 15.4217 20.651 15.9681 20.3702 16.4896L21.3579 17.8633C21.779 18.4549 21.7138 19.262 21.1974 19.7734L19.7034 21.2675C19.4226 21.5482 19.0516 21.7036 18.6556 21.7036C18.3447 21.7036 18.0489 21.6084 17.7982 21.4279L16.3894 20.4252C15.8831 20.6909 15.3516 20.9065 14.8052 21.077L14.5244 22.7615C14.4041 23.4784 13.7874 23.9999 13.0604 23.9999H10.9447C10.2178 23.9999 9.60109 23.4784 9.48077 22.7615L9.195 21.077C8.62847 20.9015 8.08199 20.6759 7.56058 20.4001L6.17183 21.3928C5.92115 21.5733 5.62034 21.6686 5.3095 21.6686C4.91343 21.6686 4.54242 21.5131 4.26167 21.2324L2.76763 19.7383C2.25625 19.227 2.18606 18.4198 2.60719 17.8282L3.59988 16.4344C3.32413 15.908 3.09351 15.3615 2.92305 14.8L1.2385 14.5192C0.521559 14.3989 0.000148773 13.7822 0.000148773 13.0553V10.9446C-0.00987816 10.2176 0.511532 9.60094 1.22847 9.48062ZM1.34378 13.0553C1.34378 13.1205 1.3889 13.1756 1.45408 13.1856L3.55977 13.5366C3.82549 13.5817 4.03606 13.7772 4.10123 14.0329C4.29175 14.7699 4.58253 15.4768 4.97359 16.1336C5.10896 16.3642 5.09893 16.65 4.94351 16.8706L3.70516 18.6153C3.67007 18.6654 3.67508 18.7406 3.7202 18.7858L5.21424 20.2798C5.24933 20.3149 5.28443 20.3199 5.3095 20.3199C5.33958 20.3199 5.36465 20.3099 5.3847 20.2948L7.1244 19.0565C7.33998 18.9011 7.63077 18.891 7.86139 19.0264C8.51817 19.4175 9.22508 19.7083 9.96207 19.8988C10.2228 19.9639 10.4183 20.1795 10.4584 20.4402L10.8144 22.5459C10.8244 22.6111 10.8795 22.6562 10.9447 22.6562H13.0554C13.1206 22.6562 13.1758 22.6111 13.1858 22.5459L13.5367 20.4402C13.5818 20.1745 13.7774 19.9639 14.0331 19.8988C14.75 19.7133 15.4419 19.4275 16.0886 19.0565C16.1939 18.9963 16.3142 18.9662 16.4295 18.9662C16.5649 18.9662 16.7053 19.0064 16.8206 19.0916L18.5753 20.34C18.6004 20.355 18.6255 20.365 18.6505 20.365C18.6706 20.365 18.7107 20.36 18.7458 20.3249L20.2398 18.8309C20.285 18.7858 20.29 18.7156 20.2549 18.6604L19.0215 16.9307C18.8661 16.7102 18.8561 16.4194 18.9915 16.1887C19.3825 15.537 19.6833 14.8301 19.8739 14.0931C19.944 13.8374 20.1546 13.6419 20.4153 13.5967L22.536 13.2358C22.6012 13.2257 22.6463 13.1706 22.6463 13.1054V10.9947C22.6463 10.9295 22.6012 10.8744 22.536 10.8644L20.4454 10.5134C20.1797 10.4683 19.9641 10.2728 19.8989 10.0121C19.7134 9.27506 19.4276 8.56314 19.0416 7.90636C18.9062 7.67574 18.9213 7.38997 19.0767 7.17439L20.3251 5.41964C20.3602 5.36951 20.3552 5.29431 20.31 5.24918L18.816 3.75515C18.7809 3.72005 18.7458 3.71504 18.7207 3.71504C18.6907 3.71504 18.6656 3.72507 18.6455 3.74011L16.9159 4.97344C16.6953 5.12886 16.4045 5.13889 16.1739 5.00352C15.5221 4.61246 14.8152 4.31165 14.0782 4.12114C13.8225 4.05095 13.627 3.84038 13.5818 3.57967L13.2209 1.45894C13.2108 1.39377 13.1557 1.34864 13.0905 1.34864H10.9798C10.9146 1.34864 10.8595 1.39377 10.8495 1.45894L10.4985 3.54959C10.4534 3.81531 10.2579 4.03089 9.99716 4.09607C9.24012 4.28658 8.51817 4.58238 7.84635 4.97845C7.61573 5.11382 7.32996 5.10379 7.10936 4.94837L5.37969 3.70501C5.35462 3.68997 5.32955 3.67994 5.30448 3.67994C5.28443 3.67994 5.24432 3.68496 5.20923 3.72005L3.71519 5.21409C3.67007 5.25921 3.66505 5.3294 3.70015 5.38455L4.93849 7.12425C5.09391 7.33983 5.10394 7.63062 4.96857 7.86124C4.57752 8.51802 4.28673 9.22493 4.09622 9.96192C4.03104 10.2226 3.81546 10.4182 3.55476 10.4583L1.44907 10.8142C1.38389 10.8242 1.33877 10.8794 1.33877 10.9446V13.0553H1.34378Z" fill="white"/>
<path d="M11.9976 6.81818C14.8553 6.81818 17.1766 9.13945 17.1766 11.9972C17.1766 14.8549 14.8553 17.1762 11.9976 17.1762C9.13986 17.1762 6.81859 14.8549 6.81859 11.9972C6.81859 9.13945 9.13986 6.81818 11.9976 6.81818ZM11.9976 15.8225C14.1083 15.8225 15.8229 14.1079 15.8229 11.9972C15.8229 9.88647 14.1083 8.17183 11.9976 8.17183C9.88688 8.17183 8.17224 9.88647 8.17224 11.9972C8.17224 14.1079 9.88688 15.8225 11.9976 15.8225Z" fill="white"/>
</svg>
