<svg width="22" height="22" viewBox="0 0 22 22" fill="none" xmlns="http://www.w3.org/2000/svg">
<g clip-path="url(#clip0_21_481)">
<path d="M11 22C17.0751 22 22 17.0751 22 11C22 4.92487 17.0751 0 11 0C4.92487 0 0 4.92487 0 11C0 17.0751 4.92487 22 11 22Z" fill="#C93636"/>
<path d="M17.239 15.5375L12.7015 11L17.2218 6.46251C17.2906 6.39376 17.2906 6.29063 17.2218 6.22188L15.7609 4.76094C15.6922 4.69219 15.589 4.69219 15.5203 4.76094L11 9.29844L6.47966 4.77813C6.41091 4.70938 6.30779 4.70938 6.23904 4.77813L4.7781 6.23907C4.70935 6.30782 4.70935 6.41094 4.7781 6.47969L9.28122 11L4.76091 15.5203C4.69216 15.5891 4.69216 15.6922 4.76091 15.7609L6.22185 17.2219C6.2906 17.2906 6.41091 17.2906 6.46248 17.2219L11 12.7016L15.5203 17.2219C15.589 17.2906 15.7093 17.2906 15.7781 17.2391L17.239 15.7781C17.3078 15.7094 17.3078 15.6063 17.239 15.5375Z" fill="white"/>
</g>
<defs>
<clipPath id="clip0_21_481">
<rect width="22" height="22" fill="white"/>
</clipPath>
</defs>
</svg>
