<svg width="24" height="24" viewBox="0 0 24 24" fill="none" xmlns="http://www.w3.org/2000/svg">
<path d="M22.9219 11.9953C22.9219 11.9859 22.9219 11.9719 22.9219 11.9625C22.9219 11.8875 22.9219 11.8125 22.9172 11.7422C22.9172 11.7 22.9125 11.6578 22.9125 11.6109C22.9125 11.5687 22.9078 11.5265 22.9078 11.4844C22.9031 11.4328 22.9031 11.3812 22.8984 11.3297C22.8984 11.2969 22.8937 11.2641 22.8937 11.2312C22.8891 11.175 22.8844 11.1187 22.8797 11.0625C22.8797 11.039 22.875 11.0109 22.875 10.9875C22.8703 10.9265 22.8609 10.8656 22.8563 10.8C22.8563 10.7859 22.8516 10.7672 22.8516 10.7531C22.2328 5.30624 17.6109 1.07343 12 1.07343C6.38906 1.07343 1.76719 5.30624 1.14844 10.7578C1.14844 10.7719 1.14375 10.7906 1.14375 10.8047C1.13906 10.8656 1.12969 10.9265 1.125 10.9922C1.12031 11.0156 1.12031 11.0437 1.12031 11.0672C1.11562 11.1234 1.11094 11.1797 1.10625 11.2359C1.10625 11.2687 1.10156 11.3015 1.10156 11.3344C1.09687 11.3859 1.09687 11.4375 1.09219 11.4891C1.09219 11.5312 1.0875 11.5734 1.0875 11.6156C1.0875 11.6578 1.08281 11.7 1.08281 11.7469C1.08281 11.8219 1.07812 11.8969 1.07812 11.9672C1.07812 11.9765 1.07812 11.9906 1.07812 12C1.07812 12 1.07812 12 1.07812 12.0047C1.07812 12.0094 1.07812 12.0047 1.07812 12.0094C1.07812 12.0187 1.07812 12.0328 1.07812 12.0422C1.07812 12.1172 1.07813 12.1922 1.08281 12.2625C1.08281 12.3047 1.0875 12.3469 1.0875 12.3937C1.0875 12.4359 1.09219 12.4781 1.09219 12.5203C1.09687 12.5719 1.09687 12.6234 1.10156 12.675C1.10156 12.7078 1.10625 12.7406 1.10625 12.7734C1.11094 12.8297 1.11562 12.8859 1.12031 12.9422C1.12031 12.9656 1.125 12.9937 1.125 13.0172C1.12969 13.0781 1.13906 13.1391 1.14375 13.2047C1.14375 13.2187 1.14844 13.2375 1.14844 13.2516C1.76719 18.6937 6.38906 22.9265 12 22.9265C17.6109 22.9265 22.2328 18.6937 22.8516 13.2469C22.8516 13.2328 22.8563 13.214 22.8563 13.2C22.8609 13.139 22.8703 13.0781 22.875 13.0125C22.8797 12.989 22.8797 12.9609 22.8797 12.9375C22.8844 12.8812 22.8891 12.825 22.8937 12.7687C22.8937 12.7359 22.8984 12.7031 22.8984 12.6703C22.9031 12.6187 22.9031 12.5672 22.9078 12.5156C22.9078 12.4734 22.9125 12.4312 22.9125 12.389C22.9125 12.3469 22.9172 12.3047 22.9172 12.2578C22.9172 12.1828 22.9219 12.1078 22.9219 12.0375C22.9219 12.0281 22.9219 12.014 22.9219 12.0047C22.9219 12 22.9219 12 22.9219 11.9953C22.9219 12 22.9219 12 22.9219 11.9953Z" fill="#007AFF"/>
<path d="M10.0125 16.1344L17.3297 8.8219" stroke="#010100" stroke-width="1.40625" stroke-miterlimit="10"/>
<path d="M10.9594 16.1813L7.25159 12.4734" stroke="#010100" stroke-width="1.40625" stroke-miterlimit="10"/>
</svg>
