<svg width="24" height="24" viewBox="0 0 24 24" fill="none" xmlns="http://www.w3.org/2000/svg">
<path d="M14.5 22C14.3684 22.0008 14.2379 21.9755 14.1161 21.9258C13.9943 21.876 13.8834 21.8027 13.79 21.71L4.79 12.71C4.69627 12.617 4.62188 12.5064 4.57111 12.3846C4.52034 12.2627 4.4942 12.132 4.4942 12C4.4942 11.868 4.52034 11.7373 4.57111 11.6154C4.62188 11.4936 4.69627 11.383 4.79 11.29L13.79 2.29C13.9783 2.1017 14.2337 1.99591 14.5 1.99591C14.6319 1.99591 14.7624 2.02188 14.8842 2.07234C15.0061 2.1228 15.1168 2.19676 15.21 2.29C15.3032 2.38324 15.3772 2.49393 15.4277 2.61575C15.4781 2.73758 15.5041 2.86814 15.5041 3C15.5041 3.13186 15.4781 3.26243 15.4277 3.38425C15.3772 3.50607 15.3032 3.61676 15.21 3.71L6.91 12L15.21 20.29C15.3037 20.383 15.3781 20.4936 15.4289 20.6154C15.4797 20.7373 15.5058 20.868 15.5058 21C15.5058 21.132 15.4797 21.2627 15.4289 21.3846C15.3781 21.5064 15.3037 21.617 15.21 21.71C15.1166 21.8027 15.0057 21.876 14.8839 21.9258C14.7621 21.9755 14.6316 22.0008 14.5 22Z" fill="white"/>
</svg>
